{
	"asset":{
		"generator":"Khronos glTF Blender I/O v4.2.57",
		"version":"2.0"
	},
	"scene":0,
	"scenes":[
		{
			"name":"Scene",
			"nodes":[
				0,
				2
			]
		}
	],
	"nodes":[
		{
			"mesh":0,
			"name":"Plane.002",
			"scale":[
				1.8156112432479858,
				1.8156112432479858,
				1.8156112432479858
			],
			"translation":[
				0,
				0,
				-6.582491397857666
			]
		},
		{
			"mesh":1,
			"name":"Plane.003",
			"translation":[
				-0.43513476848602295,
				0.24896161258220673,
				0.10139751434326172
			]
		},
		{
			"children":[
				1
			],
			"mesh":2,
			"name":"Plane.001",
			"scale":[
				1.8156112432479858,
				1.8156112432479858,
				1.8156112432479858
			],
			"translation":[
				0,
				0,
				-6.582491397857666
			]
		}
	],
	"animations":[
		{
			"channels":[
				{
					"sampler":0,
					"target":{
						"node":1,
						"path":"rotation"
					}
				}
			],
			"name":"Door",
			"samplers":[
				{
					"input":22,
					"interpolation":"LINEAR",
					"output":23
				}
			]
		}
	],
	"materials":[
		{
			"doubleSided":true,
			"name":"Door",
			"pbrMetallicRoughness":{
				"baseColorFactor":[
					0.6288396716117859,
					0.6449150443077087,
					0.361436665058136,
					1
				],
				"metallicFactor":0,
				"roughnessFactor":0.5
			}
		},
		{
			"doubleSided":true,
			"name":"Glossy",
			"pbrMetallicRoughness":{
				"baseColorFactor":[
					0.800000011920929,
					0.800000011920929,
					0.800000011920929,
					1
				],
				"metallicFactor":0,
				"roughnessFactor":0.5
			}
		},
		{
			"doubleSided":true,
			"name":"Door.001",
			"pbrMetallicRoughness":{
				"baseColorFactor":[
					0.6288396716117859,
					0.6449150443077087,
					0.361436665058136,
					1
				],
				"metallicFactor":0,
				"roughnessFactor":0.5
			}
		},
		{
			"doubleSided":true,
			"name":"Glossy.001",
			"pbrMetallicRoughness":{
				"baseColorFactor":[
					0.800000011920929,
					0.800000011920929,
					0.800000011920929,
					1
				],
				"metallicFactor":0,
				"roughnessFactor":0.5
			}
		}
	],
	"meshes":[
		{
			"name":"Plane.002",
			"primitives":[
				{
					"attributes":{
						"POSITION":0,
						"NORMAL":1,
						"TEXCOORD_0":2
					},
					"indices":3,
					"material":0
				},
				{
					"attributes":{
						"POSITION":4,
						"NORMAL":5,
						"TEXCOORD_0":6
					},
					"indices":7,
					"material":1
				}
			]
		},
		{
			"name":"Plane.003",
			"primitives":[
				{
					"attributes":{
						"POSITION":8,
						"NORMAL":9,
						"TEXCOORD_0":10
					},
					"indices":11,
					"material":2
				},
				{
					"attributes":{
						"POSITION":12,
						"NORMAL":13,
						"TEXCOORD_0":14
					},
					"indices":15,
					"material":3
				}
			]
		},
		{
			"name":"Plane.001",
			"primitives":[
				{
					"attributes":{
						"POSITION":16,
						"NORMAL":17,
						"TEXCOORD_0":18
					},
					"indices":3,
					"material":2
				},
				{
					"attributes":{
						"POSITION":19,
						"NORMAL":20,
						"TEXCOORD_0":21
					},
					"indices":7,
					"material":3
				}
			]
		}
	],
	"accessors":[
		{
			"bufferView":0,
			"componentType":5126,
			"count":215,
			"max":[
				0.48499998450279236,
				2.059999942779541,
				0.09134131669998169
			],
			"min":[
				-0.48500004410743713,
				0,
				-0.09004352986812592
			],
			"type":"VEC3"
		},
		{
			"bufferView":1,
			"componentType":5126,
			"count":215,
			"type":"VEC3"
		},
		{
			"bufferView":2,
			"componentType":5126,
			"count":215,
			"type":"VEC2"
		},
		{
			"bufferView":3,
			"componentType":5123,
			"count":396,
			"type":"SCALAR"
		},
		{
			"bufferView":4,
			"componentType":5126,
			"count":276,
			"max":[
				-0.42713478207588196,
				1.7569472789764404,
				0.1094009205698967
			],
			"min":[
				-0.44313478469848633,
				0.24896158277988434,
				0.08982137590646744
			],
			"type":"VEC3"
		},
		{
			"bufferView":5,
			"componentType":5126,
			"count":276,
			"type":"VEC3"
		},
		{
			"bufferView":6,
			"componentType":5126,
			"count":276,
			"type":"VEC2"
		},
		{
			"bufferView":7,
			"componentType":5123,
			"count":780,
			"type":"SCALAR"
		},
		{
			"bufferView":8,
			"componentType":5126,
			"count":218,
			"max":[
				0.8601347804069519,
				1.7510383129119873,
				0.004142612684518099
			],
			"min":[
				0.010134723037481308,
				-0.24896162748336792,
				-0.03585737198591232
			],
			"type":"VEC3"
		},
		{
			"bufferView":9,
			"componentType":5126,
			"count":218,
			"type":"VEC3"
		},
		{
			"bufferView":10,
			"componentType":5126,
			"count":218,
			"type":"VEC2"
		},
		{
			"bufferView":11,
			"componentType":5123,
			"count":516,
			"type":"SCALAR"
		},
		{
			"bufferView":12,
			"componentType":5126,
			"count":685,
			"max":[
				0.838378369808197,
				1.5505326986312866,
				0.014697279781103134
			],
			"min":[
				-0.007999999448657036,
				0.042547062039375305,
				-0.04641195759177208
			],
			"type":"VEC3"
		},
		{
			"bufferView":13,
			"componentType":5126,
			"count":685,
			"type":"VEC3"
		},
		{
			"bufferView":14,
			"componentType":5126,
			"count":685,
			"type":"VEC2"
		},
		{
			"bufferView":15,
			"componentType":5123,
			"count":1884,
			"type":"SCALAR"
		},
		{
			"bufferView":16,
			"componentType":5126,
			"count":215,
			"max":[
				0.48499998450279236,
				2.059999942779541,
				0.09134131669998169
			],
			"min":[
				-0.48500004410743713,
				0,
				-0.09004352986812592
			],
			"type":"VEC3"
		},
		{
			"bufferView":17,
			"componentType":5126,
			"count":215,
			"type":"VEC3"
		},
		{
			"bufferView":18,
			"componentType":5126,
			"count":215,
			"type":"VEC2"
		},
		{
			"bufferView":19,
			"componentType":5126,
			"count":276,
			"max":[
				-0.42713478207588196,
				1.7569472789764404,
				0.1094009205698967
			],
			"min":[
				-0.44313478469848633,
				0.24896158277988434,
				0.08982137590646744
			],
			"type":"VEC3"
		},
		{
			"bufferView":20,
			"componentType":5126,
			"count":276,
			"type":"VEC3"
		},
		{
			"bufferView":21,
			"componentType":5126,
			"count":276,
			"type":"VEC2"
		},
		{
			"bufferView":22,
			"componentType":5126,
			"count":151,
			"max":[
				6.25
			],
			"min":[
				0
			],
			"type":"SCALAR"
		},
		{
			"bufferView":23,
			"componentType":5126,
			"count":151,
			"type":"VEC4"
		}
	],
	"bufferViews":[
		{
			"buffer":0,
			"byteLength":2580,
			"byteOffset":0,
			"target":34962
		},
		{
			"buffer":0,
			"byteLength":2580,
			"byteOffset":2580,
			"target":34962
		},
		{
			"buffer":0,
			"byteLength":1720,
			"byteOffset":5160,
			"target":34962
		},
		{
			"buffer":0,
			"byteLength":792,
			"byteOffset":6880,
			"target":34963
		},
		{
			"buffer":0,
			"byteLength":3312,
			"byteOffset":7672,
			"target":34962
		},
		{
			"buffer":0,
			"byteLength":3312,
			"byteOffset":10984,
			"target":34962
		},
		{
			"buffer":0,
			"byteLength":2208,
			"byteOffset":14296,
			"target":34962
		},
		{
			"buffer":0,
			"byteLength":1560,
			"byteOffset":16504,
			"target":34963
		},
		{
			"buffer":0,
			"byteLength":2616,
			"byteOffset":18064,
			"target":34962
		},
		{
			"buffer":0,
			"byteLength":2616,
			"byteOffset":20680,
			"target":34962
		},
		{
			"buffer":0,
			"byteLength":1744,
			"byteOffset":23296,
			"target":34962
		},
		{
			"buffer":0,
			"byteLength":1032,
			"byteOffset":25040,
			"target":34963
		},
		{
			"buffer":0,
			"byteLength":8220,
			"byteOffset":26072,
			"target":34962
		},
		{
			"buffer":0,
			"byteLength":8220,
			"byteOffset":34292,
			"target":34962
		},
		{
			"buffer":0,
			"byteLength":5480,
			"byteOffset":42512,
			"target":34962
		},
		{
			"buffer":0,
			"byteLength":3768,
			"byteOffset":47992,
			"target":34963
		},
		{
			"buffer":0,
			"byteLength":2580,
			"byteOffset":51760,
			"target":34962
		},
		{
			"buffer":0,
			"byteLength":2580,
			"byteOffset":54340,
			"target":34962
		},
		{
			"buffer":0,
			"byteLength":1720,
			"byteOffset":56920,
			"target":34962
		},
		{
			"buffer":0,
			"byteLength":3312,
			"byteOffset":58640,
			"target":34962
		},
		{
			"buffer":0,
			"byteLength":3312,
			"byteOffset":61952,
			"target":34962
		},
		{
			"buffer":0,
			"byteLength":2208,
			"byteOffset":65264,
			"target":34962
		},
		{
			"buffer":0,
			"byteLength":604,
			"byteOffset":67472
		},
		{
			"buffer":0,
			"byteLength":2416,
			"byteOffset":68076
		}
	],
	"buffers":[
		{
			"byteLength":70492,
			"uri":"only%20door.bin"
		}
	]
}
